<svg width="156" height="34" viewBox="0 0 156 34" fill="none" xmlns="http://www.w3.org/2000/svg">
<path d="M141.312 10.2934L141.021 10.3855C139.887 8.04204 138.268 6.17651 136.162 4.78893C134.089 3.40133 131.482 2.70752 128.34 2.70752C126.591 2.70752 124.923 3.06211 123.336 3.77129C121.749 4.44972 120.356 5.42104 119.158 6.68525C117.992 7.91865 117.053 9.41416 116.34 11.1718C115.627 12.9294 115.271 14.872 115.271 16.9997C115.271 19.1273 115.627 21.0699 116.34 22.8275C117.053 24.5851 117.992 26.096 119.158 27.3603C120.356 28.5937 121.749 29.5496 123.336 30.228C124.923 30.9063 126.591 31.2455 128.34 31.2455C131.45 31.2455 133.976 30.783 135.919 29.8579C137.895 28.9021 139.563 27.4528 140.924 25.5102L141.215 25.6024L141.118 28.5626C140.373 29.3026 139.515 29.9656 138.543 30.5514C137.572 31.1065 136.519 31.5844 135.385 31.9853C134.284 32.3553 133.134 32.6328 131.936 32.8178C130.738 33.0339 129.539 33.1419 128.341 33.1419C125.847 33.1419 123.466 32.7564 121.199 31.9855C118.932 31.2146 116.94 30.1354 115.223 28.7478C113.506 27.3294 112.146 25.6335 111.142 23.66C110.138 21.6558 109.636 19.4356 109.636 16.9996C109.636 14.5636 110.138 12.3589 111.142 10.3855C112.146 8.38116 113.506 6.6698 115.223 5.25142C116.94 3.83298 118.932 2.75374 121.199 2.01369C123.466 1.24279 125.847 0.85734 128.341 0.85734C129.539 0.85734 130.738 0.949845 131.936 1.13486C133.134 1.31987 134.284 1.61281 135.385 2.01369C136.519 2.38372 137.572 2.86167 138.543 3.44757C139.515 4.0026 140.373 4.65013 141.118 5.39017L141.312 10.2934ZM34.252 19.1277C33.8959 19.2817 33.5558 19.4822 33.2317 19.7293C32.9076 19.9758 32.7456 20.315 32.7456 20.7469V26.4359C31.1909 28.5636 29.199 30.2133 26.7698 31.385C24.3406 32.5568 21.6523 33.1427 18.7048 33.1427C16.2108 33.1427 13.8302 32.7572 11.563 31.9863C9.29573 31.2154 7.30378 30.1362 5.58713 28.7486C3.87051 27.3302 2.51014 25.6343 1.50605 23.6608C0.502017 21.6566 0 19.4364 0 17.0004C0 14.5644 0.502017 12.3597 1.50605 10.3863C2.51014 8.38192 3.87051 6.67056 5.58713 5.25218C7.30378 3.83374 9.29573 2.75451 11.563 2.01449C13.8302 1.24356 16.2108 0.858098 18.7048 0.858098C19.9032 0.858098 21.1016 0.950603 22.3001 1.13561C23.4984 1.32062 24.6483 1.61357 25.7495 2.01445C26.8831 2.38447 27.9358 2.86243 28.9075 3.44832C29.8791 4.00335 30.7375 4.65089 31.4825 5.39093L31.6771 10.2937L31.3856 10.3859C30.252 8.04238 28.6325 6.17683 26.5272 4.78925C24.4543 3.40165 21.8469 2.70784 18.7052 2.70784C16.9561 2.70784 15.2881 3.06245 13.7011 3.77165C12.114 4.45005 10.7212 5.42136 9.52279 6.68557C8.35675 7.919 7.41748 9.41452 6.70498 11.1721C5.99236 12.9297 5.63605 14.8724 5.63605 17C5.63605 19.0968 5.97615 21.024 6.65635 22.7816C7.36894 24.5392 8.30824 26.0501 9.47425 27.3144C10.6726 28.5478 12.0654 29.5191 13.6524 30.2283C15.2395 30.9067 16.9238 31.2459 18.7052 31.2459C22.0737 31.2459 24.9563 30.6292 27.3531 29.3958V20.7465C27.3531 20.315 27.1751 19.9758 26.819 19.7289C26.4949 19.4824 26.171 19.2819 25.8473 19.1273L25.8917 18.8963C26.0534 18.9245 26.345 18.9553 26.7662 18.9885C27.1875 19.0167 27.6248 19.0475 28.078 19.0807H32.2565C32.6451 19.0525 33.0176 19.0218 33.3739 18.9885C33.73 18.9603 34.0052 18.9296 34.1996 18.8963L34.252 19.1277ZM69.442 1.82908C69.1179 1.98307 68.794 2.18359 68.4703 2.43065C68.1462 2.67714 67.9682 3.13967 67.9362 3.81822C67.9066 4.55827 67.8743 5.49875 67.8393 6.63967C67.8393 7.74976 67.8245 9.01399 67.7949 10.4323C67.7949 11.8508 67.7801 13.3926 67.7505 15.0577V20.2381C67.7208 22.2423 67.4616 23.9537 66.9728 25.3721C66.487 26.7905 65.8392 27.9776 65.0295 28.9335C64.2522 29.8895 63.3777 30.6449 62.406 31.2C61.4666 31.755 60.5273 32.1713 59.5881 32.4488C58.6811 32.7573 57.8228 32.9423 57.0132 33.0038C56.2034 33.0963 55.5718 33.1426 55.1184 33.1426C53.2722 33.1426 51.4907 32.9113 49.7741 32.4488C48.0574 32.0173 46.5513 31.3081 45.2558 30.3211C43.9602 29.3344 42.9238 28.0547 42.1465 26.4822C41.3691 24.9096 40.9804 22.9978 40.9804 20.7468V15.5203V10.7099C40.9804 9.22975 40.9656 7.90384 40.936 6.73214C40.936 5.52954 40.9212 4.55823 40.8915 3.81818C40.8619 3.13979 40.6839 2.67726 40.3574 2.43061C40.0333 2.18411 39.7094 1.98359 39.3857 1.82904L39.4302 1.59806C39.5919 1.62626 39.8512 1.65699 40.2078 1.69025C40.5965 1.71845 40.9852 1.74918 41.3739 1.78243C41.7951 1.78243 42.2 1.79653 42.5885 1.82473H44.3375C44.7262 1.79653 45.131 1.78243 45.5521 1.78243C45.9733 1.75423 46.362 1.7235 46.7181 1.69025C47.1067 1.66204 47.3819 1.63132 47.5437 1.59806L47.5881 1.82904C47.232 1.98303 46.892 2.18355 46.5679 2.43061C46.2764 2.6771 46.1143 3.13963 46.0817 3.81818C46.0521 4.55823 46.0198 5.52954 45.9849 6.73214V20.7468C45.9849 24.1078 46.8108 26.59 48.4626 28.1935C50.1145 29.7969 52.5599 30.5986 55.7989 30.5986C56.7381 30.5986 57.807 30.4906 59.0054 30.2746C60.2039 30.0281 61.3213 29.5347 62.3577 28.7945C63.4266 28.0544 64.3173 27.0061 65.0299 25.6493C65.7748 24.2925 66.1473 22.4887 66.1473 20.2377C66.1473 17.8017 66.1325 15.7204 66.1029 13.9936C66.1029 12.236 66.088 10.7405 66.0584 9.50706C66.0584 8.24282 66.0436 7.16358 66.014 6.26933C65.9844 5.37514 65.9521 4.55801 65.9171 3.81795C65.8874 3.13955 65.7094 2.67702 65.3829 2.43037C65.0588 2.18387 64.735 1.98334 64.4113 1.82876L64.4557 1.59782C64.8118 1.65928 65.2167 1.72104 65.6703 1.78311C66.1235 1.81131 66.5446 1.82541 66.9335 1.82541C67.2896 1.82541 67.6945 1.81131 68.1481 1.78311C68.6339 1.72165 69.055 1.65989 69.4113 1.59782L69.442 1.82908ZM104.696 10.2934L104.405 10.3855C103.271 8.04204 101.652 6.17651 99.5462 4.78893C97.4733 3.40133 94.8659 2.70752 91.7242 2.70752C89.9752 2.70752 88.3071 3.06211 86.72 3.77129C85.1329 4.44972 83.7402 5.42104 82.5418 6.68525C81.3758 7.91865 80.4365 9.41416 79.7239 11.1718C79.0114 12.9294 78.6551 14.8721 78.6551 16.9997C78.6551 19.1273 79.0114 21.0699 79.7239 22.8275C80.4366 24.5851 81.3759 26.096 82.5418 27.3603C83.7402 28.5937 85.1329 29.5496 86.72 30.228C88.3071 30.9063 89.9752 31.2455 91.7243 31.2455C94.8336 31.2455 97.36 30.783 99.3034 29.8579C101.279 28.9021 102.947 27.4528 104.307 25.5102L104.599 25.6024L104.502 28.5626C103.757 29.3026 102.899 29.9656 101.927 30.5514C100.955 31.1064 99.9027 31.5844 98.7691 31.9853C97.6679 32.3553 96.5181 32.6328 95.3196 32.8178C94.1212 33.0338 92.9228 33.1419 91.7245 33.1419C89.2304 33.1419 86.8498 32.7564 84.5826 31.9855C82.3153 31.2146 80.3234 30.1354 78.6068 28.7478C76.8901 27.3294 75.5297 25.6335 74.5257 23.66C73.5216 21.6557 73.0196 19.4356 73.0196 16.9996C73.0196 14.5636 73.5216 12.3589 74.5257 10.3855C75.5297 8.38112 76.8901 6.66976 78.6068 5.25138C80.3234 3.83294 82.3153 2.7537 84.5826 2.01365C86.8499 1.24275 89.2305 0.8573 91.7245 0.8573C92.9228 0.8573 94.1212 0.949805 95.3197 1.13482C96.5181 1.31983 97.6679 1.61277 98.7691 2.01365C99.9027 2.38368 100.955 2.86163 101.927 3.44753C102.899 4.00256 103.757 4.65009 104.502 5.39013L104.696 10.2934ZM155.956 32.356C155.794 32.3278 155.519 32.297 155.13 32.2638C154.774 32.2638 154.385 32.2497 153.964 32.2215C153.543 32.2215 153.138 32.2074 152.749 32.1792H149.835C149.446 32.2074 149.057 32.2381 148.669 32.2714C148.312 32.2996 148.037 32.3303 147.843 32.3635L147.798 32.1782C148.122 32.0242 148.446 31.8237 148.77 31.5766C149.094 31.3302 149.272 30.8676 149.304 30.1891C149.334 29.449 149.349 28.6782 149.349 27.8764C149.378 27.0747 149.393 26.165 149.393 25.1475V21.6785V17.007V12.3355V8.82025C149.393 7.80269 149.378 6.90846 149.349 6.13756C149.349 5.33585 149.334 4.56497 149.304 3.82493C149.275 3.14653 149.097 2.68401 148.77 2.43735C148.446 2.15984 148.122 1.94407 147.798 1.79005L147.843 1.6048C148.037 1.66626 148.312 1.71251 148.669 1.74356C149.057 1.74356 149.446 1.75766 149.835 1.78586C150.256 1.81406 150.661 1.82817 151.049 1.82817H152.749C153.138 1.79996 153.543 1.78586 153.964 1.78586C154.385 1.75766 154.774 1.72693 155.13 1.69368C155.519 1.66548 155.794 1.63475 155.956 1.60149L156 1.78682C155.644 1.94081 155.304 2.15656 154.98 2.43408C154.688 2.68057 154.526 3.1431 154.494 3.82166C154.464 4.5617 154.432 5.33257 154.397 6.13429V27.8732C154.426 28.6749 154.459 29.4458 154.494 30.1858C154.523 30.8642 154.685 31.3267 154.98 31.5734C155.304 31.8199 155.644 32.0204 156 32.1749L155.956 32.356Z" fill="white"/>
</svg>
